<?xml version="1.0" standalone="no"?>
<!DOCTYPE svg PUBLIC "-//W3C//DTD SVG 20010904//EN"
 "http://www.w3.org/TR/2001/REC-SVG-20010904/DTD/svg10.dtd">
<svg version="1.0" xmlns="http://www.w3.org/2000/svg"
 width="1024.000000pt" height="1024.000000pt" viewBox="0 0 1024.000000 1024.000000"
 preserveAspectRatio="xMidYMid meet">

<g transform="translate(0.000000,1024.000000) scale(0.100000,-0.100000)"
fill="#000000" stroke="none">
<path d="M5018 8947 c-190 -80 -478 -378 -724 -747 -407 -614 -661 -1343 -763
-2200 -39 -322 -46 -443 -45 -770 1 -564 66 -1148 184 -1636 102 -422 262
-916 409 -1259 71 -165 357 -697 404 -751 28 -32 52 -48 90 -59 115 -34 154
-18 297 121 l110 107 0 -182 c0 -196 4 -213 55 -261 22 -21 37 -25 85 -25 48
0 63 4 85 25 49 45 55 75 55 262 l0 172 108 -107 c59 -58 120 -111 136 -116
38 -15 130 -14 169 3 51 21 106 92 177 227 35 68 95 178 133 244 133 233 249
505 375 880 208 617 320 1125 362 1655 6 74 18 204 26 289 27 296 17 745 -27
1136 -129 1155 -553 2131 -1201 2761 -231 224 -367 287 -500 231z m-38 -2355
l0 -1989 -42 -10 c-24 -6 -128 -33 -233 -61 -277 -73 -872 -209 -879 -201 -2
2 -13 101 -26 219 -73 702 -7 1542 177 2225 41 155 126 413 178 545 118 297
421 798 639 1055 73 87 179 205 183 205 2 0 3 -895 3 -1988z m514 1732 c105
-131 223 -298 308 -434 236 -378 445 -927 553 -1450 86 -423 136 -1021 108
-1313 l-6 -67 -41 -10 c-219 -56 -660 -191 -1058 -324 l-98 -33 0 1946 1 1946
74 -78 c42 -43 113 -126 159 -183z m972 -3591 c-3 -27 -11 -102 -16 -168 -76
-837 -386 -1857 -779 -2560 -40 -71 -77 -134 -81 -139 -5 -5 -78 61 -169 153
l-161 161 0 331 c0 367 -2 382 -64 420 -40 25 -112 25 -152 0 -61 -37 -64 -54
-64 -416 l0 -328 -157 -164 -156 -164 -64 113 c-81 144 -198 373 -258 508
-175 389 -359 950 -459 1399 -38 168 -38 180 2 181 25 0 427 91 707 160 301
74 451 118 1065 314 356 113 781 243 803 245 5 1 6 -20 3 -46z"/>
</g>
</svg>
